<svg id="Vrstva_1" data-name="Vrstva 1" xmlns="http://www.w3.org/2000/svg" viewBox="0 0 1000 1000"><defs><style>.cls-1{fill:#fff;}</style></defs><title>Kreslicí plátno 1</title><path class="cls-1" d="M533.25,269.64V144.29c-6.46-.58-12.89-1.67-19.3-1.62-16.6.13-33.3-.25-49.77,1.43-27.58,2.81-54.79,8.12-80.83,18C310.58,189.8,253,235.89,215.19,304.49,193,344.72,184.68,388,191.11,434.07c6.14,44,23.58,82.51,54.61,114.23,27.88,28.49,61.81,46.85,101,54.83,28.15,5.74,56.79,7.75,83.64-4.14,19-8.43,36.75-20,54.53-31.08,21.74-13.5,42.87-28,64.38-41.86,24.94-16.1,63.37-18,87.22,1.89,16.5,13.75,26.57,31,29.23,52.29,6.56,52.63-17.92,91.27-57.2,122-37.71,29.49-81.4,38.65-128.77,34.5-49.58-4.35-91.51-24.3-126.77-58.77-14.46-14.14-26.5-30.22-35.09-48.76a14.81,14.81,0,0,0-7.48-7c-31.21-11.78-59.63-28-83.47-51.63-31.24-31-51.9-67.76-60.25-111.12-2.18-11.31-3.5-22.79-5.09-33.4-1.25,8-3.23,17-3.95,26.17-1.31,16.78-2.73,33.62-2.6,50.43q1,125.9,79.71,224.42c52,65,119.38,105.51,200.49,123.19,25,5.46,50.57,8.08,76.18,6.64,59.46-3.36,114.52-20.59,164.28-53.88A293.19,293.19,0,0,0,770,700.82c20.83-37.34,31.75-77.27,28.34-120.12-4.18-52.53-28.23-95.41-67-130.35-28.06-25.27-60.94-41.23-98-48.21-39.23-7.39-75.79-1-109.3,21.83-27.46,18.7-55.56,36.47-83.41,54.59-15.68,10.2-32.44,16.6-51.65,15.56-26.17-1.43-44.85-14.8-57.63-36.54-15.08-25.65-15.82-53.34-7.33-81.11,16.31-53.29,53.82-86,105.22-103.39,33.19-11.21,67.43-10.62,101.56-3.26A10.1,10.1,0,0,0,533.25,269.64Z"/><path class="cls-1" d="M830.75,598.19c22.62-81.32,18.48-160.41-13.65-237.43C780.25,272.44,718.59,207.51,630.16,168V372C751.47,399.32,818.08,473.86,830.75,598.19Z"/><path class="cls-1" d="M398.24,359.52c-1.11,32.54,25,63.06,63.95,63.83,34.85.68,64.28-27.55,65.18-61.28,1-35.46-21.85-66.8-64.43-67.57C425.22,293.83,397,322.76,398.24,359.52Z"/><path class="cls-1" d="M592.39,642c-1.25-32.66-24.71-62-60.82-64.4-6.15-.41-13.15,2-18.72,5a248.25,248.25,0,0,0-31.45,20c-21.68,16.36-24.1,45.73-13.66,67.61,12,25.16,32.58,37.82,60.3,37.15,28.65-.7,48.7-15.24,59.36-41.74C590.35,658.21,590.8,649.86,592.39,642Z"/></svg>